%TF.GenerationSoftware,KiCad,Pcbnew,(6.0.4)*%
%TF.CreationDate,2022-06-17T15:21:08+10:00*%
%TF.ProjectId,luna,6c756e61-2e6b-4696-9361-645f70636258,rev?*%
%TF.SameCoordinates,Original*%
%TF.FileFunction,Copper,L2,Bot*%
%TF.FilePolarity,Positive*%
%FSLAX46Y46*%
G04 Gerber Fmt 4.6, Leading zero omitted, Abs format (unit mm)*
G04 Created by KiCad (PCBNEW (6.0.4)) date 2022-06-17 15:21:08*
%MOMM*%
%LPD*%
G01*
G04 APERTURE LIST*
G04 Aperture macros list*
%AMRoundRect*
0 Rectangle with rounded corners*
0 $1 Rounding radius*
0 $2 $3 $4 $5 $6 $7 $8 $9 X,Y pos of 4 corners*
0 Add a 4 corners polygon primitive as box body*
4,1,4,$2,$3,$4,$5,$6,$7,$8,$9,$2,$3,0*
0 Add four circle primitives for the rounded corners*
1,1,$1+$1,$2,$3*
1,1,$1+$1,$4,$5*
1,1,$1+$1,$6,$7*
1,1,$1+$1,$8,$9*
0 Add four rect primitives between the rounded corners*
20,1,$1+$1,$2,$3,$4,$5,0*
20,1,$1+$1,$4,$5,$6,$7,0*
20,1,$1+$1,$6,$7,$8,$9,0*
20,1,$1+$1,$8,$9,$2,$3,0*%
%AMHorizOval*
0 Thick line with rounded ends*
0 $1 width*
0 $2 $3 position (X,Y) of the first rounded end (center of the circle)*
0 $4 $5 position (X,Y) of the second rounded end (center of the circle)*
0 Add line between two ends*
20,1,$1,$2,$3,$4,$5,0*
0 Add two circle primitives to create the rounded ends*
1,1,$1,$2,$3*
1,1,$1,$4,$5*%
%AMRotRect*
0 Rectangle, with rotation*
0 The origin of the aperture is its center*
0 $1 length*
0 $2 width*
0 $3 Rotation angle, in degrees counterclockwise*
0 Add horizontal line*
21,1,$1,$2,0,0,$3*%
G04 Aperture macros list end*
%TA.AperFunction,SMDPad,CuDef*%
%ADD10RotRect,1.400000X1.300000X295.000000*%
%TD*%
%TA.AperFunction,ComponentPad*%
%ADD11RotRect,1.778000X1.300000X115.000000*%
%TD*%
%TA.AperFunction,ComponentPad*%
%ADD12HorizOval,1.300000X-0.101006X0.216608X0.101006X-0.216608X0*%
%TD*%
%TA.AperFunction,ComponentPad*%
%ADD13RotRect,1.778000X1.300000X70.000000*%
%TD*%
%TA.AperFunction,SMDPad,CuDef*%
%ADD14RotRect,1.400000X1.300000X250.000000*%
%TD*%
%TA.AperFunction,ComponentPad*%
%ADD15HorizOval,1.300000X0.081743X0.224587X-0.081743X-0.224587X0*%
%TD*%
%TA.AperFunction,SMDPad,CuDef*%
%ADD16RotRect,1.400000X1.300000X260.000000*%
%TD*%
%TA.AperFunction,ComponentPad*%
%ADD17RotRect,1.778000X1.300000X80.000000*%
%TD*%
%TA.AperFunction,ComponentPad*%
%ADD18HorizOval,1.300000X0.041502X0.235369X-0.041502X-0.235369X0*%
%TD*%
%TA.AperFunction,ComponentPad*%
%ADD19C,2.286000*%
%TD*%
%TA.AperFunction,ComponentPad*%
%ADD20C,2.032000*%
%TD*%
%TA.AperFunction,ComponentPad*%
%ADD21RotRect,1.778000X1.300000X85.000000*%
%TD*%
%TA.AperFunction,SMDPad,CuDef*%
%ADD22RotRect,1.400000X1.300000X265.000000*%
%TD*%
%TA.AperFunction,ComponentPad*%
%ADD23HorizOval,1.300000X0.020830X0.238091X-0.020830X-0.238091X0*%
%TD*%
%TA.AperFunction,ComponentPad*%
%ADD24R,1.300000X1.778000*%
%TD*%
%TA.AperFunction,SMDPad,CuDef*%
%ADD25R,1.300000X1.400000*%
%TD*%
%TA.AperFunction,ComponentPad*%
%ADD26O,1.300000X1.778000*%
%TD*%
%TA.AperFunction,SMDPad,CuDef*%
%ADD27RotRect,1.400000X1.300000X305.000000*%
%TD*%
%TA.AperFunction,ComponentPad*%
%ADD28RotRect,1.778000X1.300000X125.000000*%
%TD*%
%TA.AperFunction,ComponentPad*%
%ADD29HorizOval,1.300000X-0.137085X0.195777X0.137085X-0.195777X0*%
%TD*%
%TA.AperFunction,SMDPad,CuDef*%
%ADD30RotRect,1.400000X1.300000X285.000000*%
%TD*%
%TA.AperFunction,ComponentPad*%
%ADD31RotRect,1.778000X1.300000X105.000000*%
%TD*%
%TA.AperFunction,ComponentPad*%
%ADD32HorizOval,1.300000X-0.061858X0.230856X0.061858X-0.230856X0*%
%TD*%
%TA.AperFunction,ComponentPad*%
%ADD33O,2.500000X1.700000*%
%TD*%
%TA.AperFunction,ComponentPad*%
%ADD34C,1.524000*%
%TD*%
%TA.AperFunction,ComponentPad*%
%ADD35C,4.400000*%
%TD*%
%TA.AperFunction,ComponentPad*%
%ADD36C,1.600000*%
%TD*%
%TA.AperFunction,ComponentPad*%
%ADD37C,1.397000*%
%TD*%
%TA.AperFunction,ComponentPad*%
%ADD38RoundRect,0.250000X0.625000X-0.350000X0.625000X0.350000X-0.625000X0.350000X-0.625000X-0.350000X0*%
%TD*%
%TA.AperFunction,ComponentPad*%
%ADD39O,1.750000X1.200000*%
%TD*%
%TA.AperFunction,SMDPad,CuDef*%
%ADD40R,1.500000X1.000000*%
%TD*%
%TA.AperFunction,ViaPad*%
%ADD41C,0.800000*%
%TD*%
%TA.AperFunction,Conductor*%
%ADD42C,0.250000*%
%TD*%
G04 APERTURE END LIST*
D10*
%TO.P,D8,1,K*%
%TO.N,ROW3*%
X124025081Y-130672325D03*
D11*
X124542789Y-131782552D03*
D10*
%TO.P,D8,2,A*%
%TO.N,Net-(D8-Pad2)*%
X122524787Y-127454933D03*
D12*
X122007079Y-126344706D03*
%TD*%
D13*
%TO.P,D19,1,K*%
%TO.N,ROW0*%
X229349641Y-125845965D03*
D14*
X229768615Y-124694841D03*
%TO.P,D19,2,A*%
%TO.N,Net-(D19-Pad2)*%
X230982787Y-121358933D03*
D15*
X231401761Y-120207809D03*
%TD*%
D16*
%TO.P,D14,1,K*%
%TO.N,ROW1*%
X197387616Y-93803390D03*
D17*
X197174897Y-95009779D03*
D18*
%TO.P,D14,2,A*%
%TO.N,Net-(D14-Pad2)*%
X198216787Y-89100933D03*
D16*
X198004068Y-90307322D03*
%TD*%
D19*
%TO.P,S4,1,1*%
%TO.N,COL0*%
X95436379Y-147181347D03*
X98245467Y-146764786D03*
D20*
X102973784Y-138802832D03*
%TO.P,S4,2,2*%
%TO.N,Net-(D4-Pad2)*%
X98385683Y-135911582D03*
D19*
X92522610Y-143020055D03*
X93874815Y-140522848D03*
D20*
X104121447Y-144103103D03*
%TD*%
D19*
%TO.P,S3,1,1*%
%TO.N,COL0*%
X127396787Y-98802933D03*
D20*
X131206787Y-107242933D03*
D19*
X128666787Y-96262933D03*
%TO.P,S3,2,2*%
%TO.N,Net-(D3-Pad2)*%
X135016787Y-98802933D03*
D20*
X126206787Y-105142933D03*
X136206787Y-105142933D03*
D19*
X133746787Y-96262933D03*
%TD*%
D21*
%TO.P,D11,1,K*%
%TO.N,ROW2*%
X176365320Y-100979517D03*
D22*
X176472086Y-99759179D03*
%TO.P,D11,2,A*%
%TO.N,Net-(D11-Pad2)*%
X176781488Y-96222687D03*
D23*
X176888254Y-95002349D03*
%TD*%
D24*
%TO.P,D6,1,K*%
%TO.N,ROW1*%
X157830787Y-85747933D03*
D25*
X157830787Y-84522933D03*
D26*
%TO.P,D6,2,A*%
%TO.N,Net-(D6-Pad2)*%
X157830787Y-79747933D03*
D25*
X157830787Y-80972933D03*
%TD*%
D13*
%TO.P,D17,1,K*%
%TO.N,ROW1*%
X212585641Y-118987965D03*
D14*
X213004615Y-117836841D03*
D15*
%TO.P,D17,2,A*%
%TO.N,sw25*%
X214637761Y-113349809D03*
D14*
X214218787Y-114500933D03*
%TD*%
D27*
%TO.P,D4,1,K*%
%TO.N,ROW3*%
X106526983Y-139252923D03*
D28*
X107229614Y-140256384D03*
D29*
%TO.P,D4,2,A*%
%TO.N,Net-(D4-Pad2)*%
X103788156Y-135341472D03*
D27*
X104490787Y-136344933D03*
%TD*%
D19*
%TO.P,S1,1,1*%
%TO.N,COL0*%
X128666787Y-62262933D03*
D20*
X131206787Y-73242933D03*
D19*
X127396787Y-64802933D03*
%TO.P,S1,2,2*%
%TO.N,Net-(D1-Pad2)*%
X133746787Y-62262933D03*
X135016787Y-64802933D03*
D20*
X126206787Y-71142933D03*
X136206787Y-71142933D03*
%TD*%
D14*
%TO.P,D18,1,K*%
%TO.N,ROW2*%
X207007701Y-133694887D03*
D13*
X206588727Y-134846011D03*
D15*
%TO.P,D18,2,A*%
%TO.N,Net-(D18-Pad2)*%
X208640847Y-129207855D03*
D14*
X208221873Y-130358979D03*
%TD*%
D24*
%TO.P,D5,1,K*%
%TO.N,ROW0*%
X157830787Y-68938933D03*
D25*
X157830787Y-67713933D03*
D26*
%TO.P,D5,2,A*%
%TO.N,Net-(D5-Pad2)*%
X157830787Y-62938933D03*
D25*
X157830787Y-64163933D03*
%TD*%
D19*
%TO.P,S6,1,1*%
%TO.N,COL1*%
X146666787Y-77487242D03*
X145396787Y-80027242D03*
D20*
X149206787Y-88467242D03*
%TO.P,S6,2,2*%
%TO.N,Net-(D6-Pad2)*%
X154206787Y-86367242D03*
D19*
X151746787Y-77487242D03*
D20*
X144206787Y-86367242D03*
D19*
X153016787Y-80027242D03*
%TD*%
D20*
%TO.P,S17,1,1*%
%TO.N,COL4*%
X203468081Y-118320186D03*
D19*
X204836643Y-107133630D03*
X202774502Y-109086084D03*
D20*
%TO.P,S17,2,2*%
%TO.N,sw25*%
X208884787Y-118056933D03*
D19*
X209934960Y-111692277D03*
D20*
X199487860Y-114636731D03*
D19*
X209610283Y-108871093D03*
%TD*%
D22*
%TO.P,D10,1,K*%
%TO.N,ROW1*%
X178095385Y-83239425D03*
D21*
X177988619Y-84459763D03*
D22*
%TO.P,D10,2,A*%
%TO.N,Net-(D10-Pad2)*%
X178404787Y-79702933D03*
D23*
X178511553Y-78482595D03*
%TD*%
D20*
%TO.P,S12,1,1*%
%TO.N,COL2*%
X139653749Y-123641901D03*
D19*
X132487436Y-129506511D03*
X129705284Y-128937185D03*
D20*
%TO.P,S12,2,2*%
%TO.N,Net-(D12-Pad2)*%
X138919400Y-129015050D03*
D19*
X130515235Y-122146156D03*
D20*
X136331210Y-119355791D03*
D19*
X128390483Y-124030282D03*
%TD*%
D20*
%TO.P,S10,1,1*%
%TO.N,COL2*%
X168976544Y-86575629D03*
D19*
X167403180Y-75416035D03*
X165916637Y-77835682D03*
%TO.P,S10,2,2*%
%TO.N,Net-(D10-Pad2)*%
X173507640Y-78499809D03*
D20*
X164178598Y-84047841D03*
D19*
X172463849Y-75858787D03*
D20*
X174140545Y-84919399D03*
%TD*%
D21*
%TO.P,D9,1,K*%
%TO.N,ROW0*%
X179258619Y-67949763D03*
D22*
X179365385Y-66729425D03*
D23*
%TO.P,D9,2,A*%
%TO.N,Net-(D9-Pad2)*%
X179781553Y-61972595D03*
D22*
X179674787Y-63192933D03*
%TD*%
D30*
%TO.P,D16,1,K*%
%TO.N,unconnected-(D16-Pad1)*%
X159814191Y-120279451D03*
D31*
%TO.N,ROW3*%
X160131244Y-121462710D03*
D32*
%TO.P,D16,2,A*%
%TO.N,Net-(D16-Pad2)*%
X158578330Y-115667156D03*
D30*
X158895383Y-116850415D03*
%TD*%
D19*
%TO.P,S7,1,1*%
%TO.N,COL1*%
X145396787Y-97027242D03*
D20*
X149206787Y-105467242D03*
D19*
X146666787Y-94487242D03*
%TO.P,S7,2,2*%
%TO.N,Net-(D7-Pad2)*%
X151746787Y-94487242D03*
X153016787Y-97027242D03*
D20*
X154206787Y-103367242D03*
X144206787Y-103367242D03*
%TD*%
D33*
%TO.P,J1,1*%
%TO.N,VCC*%
X101234000Y-117964000D03*
X101234000Y-112014000D03*
%TO.P,J1,2*%
%TO.N,SERIAL*%
X97234000Y-117964000D03*
X97234000Y-112014000D03*
%TO.P,J1,3*%
%TO.N,unconnected-(J1-Pad3)*%
X94234000Y-112014000D03*
X94234000Y-117964000D03*
%TO.P,J1,4*%
%TO.N,GND*%
X102734000Y-116214000D03*
X102734000Y-113764000D03*
%TD*%
D30*
%TO.P,D12,1,K*%
%TO.N,ROW3*%
X143001595Y-125295969D03*
D31*
X143318648Y-126479228D03*
D30*
%TO.P,D12,2,A*%
%TO.N,Net-(D12-Pad2)*%
X142082787Y-121866933D03*
D32*
X141765734Y-120683674D03*
%TD*%
D19*
%TO.P,S18,1,1*%
%TO.N,COL4*%
X196960159Y-125060860D03*
D20*
X197653738Y-134294962D03*
D19*
X199022300Y-123108406D03*
%TO.P,S18,2,2*%
%TO.N,Net-(D18-Pad2)*%
X204120617Y-127667053D03*
D20*
X193673517Y-130611507D03*
D19*
X203795939Y-124845869D03*
D20*
X203070444Y-134031709D03*
%TD*%
D34*
%TO.P,SW2,1,A*%
%TO.N,BAT+*%
X93904000Y-104942000D03*
%TO.P,SW2,2,B*%
%TO.N,Net-(J3-Pad1)*%
X97104000Y-107442000D03*
%TO.P,SW2,3*%
%TO.N,N/C*%
X93904000Y-109942000D03*
%TD*%
D19*
%TO.P,S5,1,1*%
%TO.N,COL1*%
X145396787Y-63027242D03*
D20*
X149206787Y-71467242D03*
D19*
X146666787Y-60487242D03*
%TO.P,S5,2,2*%
%TO.N,Net-(D5-Pad2)*%
X153016787Y-63027242D03*
X151746787Y-60487242D03*
D20*
X154206787Y-69367242D03*
X144206787Y-69367242D03*
%TD*%
%TO.P,S2,1,1*%
%TO.N,COL0*%
X131206787Y-90242933D03*
D19*
X128666787Y-79262933D03*
X127396787Y-81802933D03*
%TO.P,S2,2,2*%
%TO.N,Net-(D2-Pad2)*%
X133746787Y-79262933D03*
D20*
X126206787Y-88142933D03*
X136206787Y-88142933D03*
D19*
X135016787Y-81802933D03*
%TD*%
%TO.P,S19,1,1*%
%TO.N,COL4*%
X221789728Y-113183892D03*
X219727587Y-115136346D03*
D20*
X220421166Y-124370448D03*
%TO.P,S19,2,2*%
%TO.N,Net-(D19-Pad2)*%
X216440945Y-120686993D03*
X225837872Y-124107195D03*
D19*
X226563367Y-114921355D03*
X226888045Y-117742539D03*
%TD*%
D25*
%TO.P,D1,1,K*%
%TO.N,ROW0*%
X139796787Y-70044933D03*
D24*
X139796787Y-71269933D03*
D25*
%TO.P,D1,2,A*%
%TO.N,Net-(D1-Pad2)*%
X139796787Y-66494933D03*
D26*
X139796787Y-65269933D03*
%TD*%
D35*
%TO.P,REF\u002A\u002A,1*%
%TO.N,N/C*%
X159512000Y-110998000D03*
X178562000Y-91948000D03*
X140462000Y-91948000D03*
X159512000Y-72898000D03*
%TD*%
D20*
%TO.P,S9,1,1*%
%TO.N,COL2*%
X170458193Y-69640319D03*
D19*
X168884829Y-58480725D03*
X167398286Y-60900372D03*
D20*
%TO.P,S9,2,2*%
%TO.N,Net-(D9-Pad2)*%
X175622194Y-67984089D03*
D19*
X174989289Y-61564499D03*
X173945498Y-58923477D03*
D20*
X165660247Y-67112531D03*
%TD*%
D25*
%TO.P,D2,1,K*%
%TO.N,ROW1*%
X139796787Y-87573933D03*
D24*
X139796787Y-88798933D03*
D25*
%TO.P,D2,2,A*%
%TO.N,Net-(D2-Pad2)*%
X139796787Y-84023933D03*
D26*
X139796787Y-82798933D03*
%TD*%
D36*
%TO.P,S16,A*%
%TO.N,Enc1*%
X148882188Y-127338195D03*
%TO.P,S16,B*%
%TO.N,GND*%
X151335639Y-126680795D03*
%TO.P,S16,C*%
%TO.N,Enc2*%
X153789091Y-126023395D03*
%TO.P,S16,D*%
%TO.N,N/C*%
X156242543Y-125365994D03*
%TO.P,S16,S1*%
%TO.N,Net-(D16-Pad2)*%
X146890678Y-129140032D03*
%TO.P,S16,S2*%
%TO.N,COL3*%
X146411863Y-127353069D03*
%TD*%
D19*
%TO.P,S8,1,1*%
%TO.N,COL1*%
X111621079Y-136498995D03*
X114459826Y-136576555D03*
D20*
X120498888Y-129556624D03*
D19*
%TO.P,S8,2,2*%
%TO.N,Net-(D8-Pad2)*%
X109474178Y-131894951D03*
D20*
X116482550Y-125912584D03*
X120708733Y-134975662D03*
D19*
X111239475Y-129670490D03*
%TD*%
D37*
%TO.P,J2,1,Pin_1*%
%TO.N,Net-(J2-Pad1)*%
X105410000Y-97536000D03*
%TO.P,J2,2,Pin_2*%
%TO.N,Net-(J2-Pad2)*%
X107950000Y-97536000D03*
%TO.P,J2,3,Pin_3*%
%TO.N,Net-(J2-Pad3)*%
X110490000Y-97536000D03*
%TO.P,J2,4,Pin_4*%
%TO.N,Net-(J2-Pad4)*%
X113030000Y-97536000D03*
%TD*%
D25*
%TO.P,D3,1,K*%
%TO.N,ROW2*%
X139796787Y-100527933D03*
D24*
X139796787Y-101752933D03*
D25*
%TO.P,D3,2,A*%
%TO.N,Net-(D3-Pad2)*%
X139796787Y-96977933D03*
D26*
X139796787Y-95752933D03*
%TD*%
D34*
%TO.P,U11,1,TX0/D3*%
%TO.N,NA*%
X117488900Y-63119000D03*
X100942500Y-64389000D03*
%TO.P,U11,2,RX1/D2*%
%TO.N,SERIAL*%
X100942500Y-66929000D03*
X117488900Y-65659000D03*
%TO.P,U11,3,GND*%
%TO.N,GND*%
X100942500Y-69469000D03*
X117488900Y-68199000D03*
%TO.P,U11,4,GND*%
X100942500Y-72009000D03*
X117488900Y-70739000D03*
%TO.P,U11,5,2/D1/SDA*%
%TO.N,SDA*%
X100942500Y-74549000D03*
X117488900Y-73279000D03*
%TO.P,U11,6,3/D0/SCL*%
%TO.N,SCL*%
X117488900Y-75819000D03*
X100942500Y-77089000D03*
%TO.P,U11,7,4/D4*%
%TO.N,N/C*%
X100942500Y-79629000D03*
X117488900Y-78359000D03*
%TO.P,U11,8,5/C6*%
%TO.N,ROW3*%
X100942500Y-82169000D03*
X117488900Y-80899000D03*
%TO.P,U11,9,6/D7*%
%TO.N,TP_DATA*%
X117488900Y-83439000D03*
X100942500Y-84709000D03*
%TO.P,U11,10,7/E6*%
%TO.N,TP_CLK*%
X117488900Y-85979000D03*
X100942500Y-87249000D03*
%TO.P,U11,11,8/B4*%
%TO.N,Enc1*%
X100942500Y-89789000D03*
X117488900Y-88519000D03*
%TO.P,U11,12,9/B5*%
%TO.N,COL4*%
X117488900Y-91059000D03*
X100942500Y-92329000D03*
%TO.P,U11,13,B6/10*%
%TO.N,COL3*%
X102268900Y-91059000D03*
X116182500Y-92329000D03*
%TO.P,U11,14,B2/16*%
%TO.N,COL2*%
X102268900Y-88519000D03*
X116182500Y-89789000D03*
%TO.P,U11,15,B3/14*%
%TO.N,COL1*%
X102268900Y-85979000D03*
X116182500Y-87249000D03*
%TO.P,U11,16,B1/15*%
%TO.N,COL0*%
X102268900Y-83439000D03*
X116182500Y-84709000D03*
%TO.P,U11,17,F7/A0*%
%TO.N,Enc2*%
X116182500Y-82169000D03*
X102268900Y-80899000D03*
%TO.P,U11,18,F6/A1*%
%TO.N,ROW2*%
X102268900Y-78359000D03*
X116182500Y-79629000D03*
%TO.P,U11,19,F5/A2*%
%TO.N,ROW1*%
X116182500Y-77089000D03*
X102268900Y-75819000D03*
%TO.P,U11,20,F4/A3*%
%TO.N,ROW0*%
X116182500Y-74549000D03*
X102268900Y-73279000D03*
%TO.P,U11,21,VCC*%
%TO.N,VCC*%
X116182500Y-72009000D03*
X102268900Y-70739000D03*
%TO.P,U11,22,RST*%
%TO.N,RESET*%
X116182500Y-69469000D03*
X102268900Y-68199000D03*
%TO.P,U11,23,GND*%
%TO.N,GND*%
X116182500Y-66929000D03*
X102268900Y-65659000D03*
%TO.P,U11,24,RAW*%
%TO.N,BAT+*%
X116182500Y-64389000D03*
X102268900Y-63119000D03*
%TD*%
D25*
%TO.P,D7,1,K*%
%TO.N,ROW2*%
X157830787Y-100524933D03*
D24*
X157830787Y-101749933D03*
D25*
%TO.P,D7,2,A*%
%TO.N,Net-(D7-Pad2)*%
X157830787Y-96974933D03*
D26*
X157830787Y-95749933D03*
%TD*%
D38*
%TO.P,J3,1,Pin_1*%
%TO.N,Net-(J3-Pad1)*%
X104992000Y-111744000D03*
D39*
%TO.P,J3,2,Pin_2*%
%TO.N,GND*%
X104992000Y-109744000D03*
%TD*%
D19*
%TO.P,S15,1,1*%
%TO.N,COL3*%
X182905698Y-103673385D03*
D20*
X185192225Y-112646762D03*
D19*
X184597470Y-101392506D03*
D20*
%TO.P,S15,2,2*%
%TO.N,Net-(D15-Pad2)*%
X180632847Y-109710425D03*
D19*
X190409933Y-104996584D03*
X189600293Y-102274639D03*
D20*
X190480925Y-111446906D03*
%TD*%
%TO.P,S11,1,1*%
%TO.N,COL2*%
X167494898Y-103510938D03*
D19*
X164434991Y-94770991D03*
X165921534Y-92351344D03*
D20*
%TO.P,S11,2,2*%
%TO.N,Net-(D11-Pad2)*%
X172658899Y-101854708D03*
D19*
X170982203Y-92794096D03*
D20*
X162696952Y-100983150D03*
D19*
X172025994Y-95435118D03*
%TD*%
%TO.P,S14,1,1*%
%TO.N,COL3*%
X185857718Y-86931654D03*
X187549490Y-84650775D03*
D20*
X188144245Y-95905031D03*
%TO.P,S14,2,2*%
%TO.N,Net-(D14-Pad2)*%
X183584867Y-92968694D03*
X193432945Y-94705175D03*
D19*
X193361953Y-88254853D03*
X192552313Y-85532908D03*
%TD*%
D20*
%TO.P,S13,1,1*%
%TO.N,COL3*%
X191096263Y-79163299D03*
D19*
X190501508Y-67909043D03*
X188809736Y-70189922D03*
D20*
%TO.P,S13,2,2*%
%TO.N,Net-(D13-Pad2)*%
X186536885Y-76226962D03*
D19*
X195504331Y-68791176D03*
X196313971Y-71513121D03*
D20*
X196384963Y-77963443D03*
%TD*%
D16*
%TO.P,D13,1,K*%
%TO.N,ROW0*%
X200461429Y-77103001D03*
D17*
X200248710Y-78309390D03*
D18*
%TO.P,D13,2,A*%
%TO.N,Net-(D13-Pad2)*%
X201290600Y-72400544D03*
D16*
X201077881Y-73606933D03*
%TD*%
D17*
%TO.P,D15,1,K*%
%TO.N,ROW2*%
X194206100Y-112091390D03*
D16*
X194418819Y-110885001D03*
D18*
%TO.P,D15,2,A*%
%TO.N,Net-(D15-Pad2)*%
X195247990Y-106182544D03*
D16*
X195035271Y-107388933D03*
%TD*%
D40*
%TO.P,JP8,1,A*%
%TO.N,SDA*%
X113030000Y-94204000D03*
%TO.P,JP8,2,B*%
%TO.N,Net-(J2-Pad4)*%
X113030000Y-95504000D03*
%TD*%
D36*
%TO.P,S16,A*%
%TO.N,Enc1*%
X145970473Y-116471530D03*
%TO.P,S16,B*%
%TO.N,GND*%
X148423925Y-115814129D03*
%TO.P,S16,C*%
%TO.N,Enc2*%
X150877377Y-115156729D03*
%TO.P,S16,D*%
%TO.N,N/C*%
X153330828Y-114499329D03*
%TO.P,S16,S1*%
%TO.N,Net-(D16-Pad2)*%
X143344857Y-115906848D03*
%TO.P,S16,S2*%
%TO.N,COL3*%
X143823673Y-117693811D03*
%TD*%
D40*
%TO.P,JP4,1,A*%
%TO.N,Net-(J2-Pad1)*%
X105410000Y-95504000D03*
%TO.P,JP4,2,B*%
%TO.N,GND*%
X105410000Y-94204000D03*
%TD*%
%TO.P,JP2,1,A*%
%TO.N,Net-(J2-Pad3)*%
X110490000Y-95504000D03*
%TO.P,JP2,2,B*%
%TO.N,SCL*%
X110490000Y-94204000D03*
%TD*%
%TO.P,JP6,1,A*%
%TO.N,VCC*%
X107950000Y-94204000D03*
%TO.P,JP6,2,B*%
%TO.N,Net-(J2-Pad2)*%
X107950000Y-95504000D03*
%TD*%
D41*
%TO.N,ROW3*%
X125293830Y-108866655D03*
X120142000Y-113030000D03*
%TO.N,Enc1*%
X141836724Y-116553721D03*
%TO.N,Enc2*%
X141732000Y-114808000D03*
%TD*%
D42*
%TO.N,VCC*%
X107950000Y-94204000D02*
X108950000Y-94204000D01*
X119517040Y-73770580D02*
X117755460Y-72009000D01*
X119517040Y-92826960D02*
X119517040Y-73770580D01*
X114912500Y-70739000D02*
X116182500Y-72009000D01*
X108950000Y-94204000D02*
X109415489Y-94669489D01*
X109415489Y-97908246D02*
X110567243Y-99060000D01*
X117755460Y-72009000D02*
X116182500Y-72009000D01*
X113284000Y-99060000D02*
X119517040Y-92826960D01*
X110567243Y-99060000D02*
X113284000Y-99060000D01*
X109415489Y-94669489D02*
X109415489Y-97908246D01*
X102268900Y-70739000D02*
X114912500Y-70739000D01*
%TO.N,ROW0*%
X102268900Y-73279000D02*
X114912500Y-73279000D01*
X114912500Y-73279000D02*
X116182500Y-74549000D01*
%TO.N,ROW1*%
X102268900Y-75819000D02*
X114912500Y-75819000D01*
X114912500Y-75819000D02*
X116182500Y-77089000D01*
%TO.N,ROW2*%
X114912500Y-78359000D02*
X116182500Y-79629000D01*
X102268900Y-78359000D02*
X114912500Y-78359000D01*
%TO.N,ROW3*%
X120142000Y-113030000D02*
X121158000Y-113030000D01*
X121158000Y-113030000D02*
X125222000Y-108966000D01*
%TO.N,Net-(D16-Pad2)*%
X158895383Y-116850415D02*
X157573239Y-116850415D01*
X147536374Y-126887280D02*
X147536374Y-128494336D01*
X147536374Y-128494336D02*
X146890678Y-129140032D01*
X157573239Y-116850415D02*
X147536374Y-126887280D01*
%TO.N,COL4*%
X214630000Y-106024164D02*
X221789728Y-113183892D01*
X219727587Y-115136346D02*
X219727587Y-123676869D01*
X97028000Y-88414500D02*
X97028000Y-59161837D01*
X197653738Y-134294962D02*
X196960159Y-133601383D01*
X97028000Y-59161837D02*
X99751152Y-56438685D01*
X196960159Y-133601383D02*
X196960159Y-125060860D01*
X214630000Y-105156000D02*
X214630000Y-106024164D01*
X220421166Y-124370448D02*
X215810448Y-124370448D01*
X215773313Y-110109313D02*
X212797630Y-107133630D01*
X214884000Y-123444000D02*
X214884000Y-118364000D01*
X100942500Y-92329000D02*
X97028000Y-88414500D01*
X192074685Y-56438685D02*
X203962000Y-68326000D01*
X211396190Y-105156000D02*
X214630000Y-105156000D01*
X199022300Y-123108406D02*
X203468081Y-118662625D01*
X214884000Y-118364000D02*
X215900000Y-117348000D01*
X215773313Y-117475313D02*
X215773313Y-110109313D01*
X219727587Y-123676869D02*
X220421166Y-124370448D01*
X99751152Y-56438685D02*
X192074685Y-56438685D01*
X203468081Y-118662625D02*
X203468081Y-118320186D01*
X203962000Y-68326000D02*
X203576613Y-68711387D01*
X203576613Y-97336423D02*
X211396190Y-105156000D01*
X203468081Y-118320186D02*
X202774502Y-117626607D01*
X212797630Y-107133630D02*
X204836643Y-107133630D01*
X202774502Y-117626607D02*
X202774502Y-109086084D01*
X203576613Y-68711387D02*
X203576613Y-97336423D01*
X215810448Y-124370448D02*
X214884000Y-123444000D01*
%TO.N,GND*%
X103632000Y-117556311D02*
X90836458Y-130351853D01*
X156708332Y-126490505D02*
X155776754Y-126490505D01*
X108476763Y-99509520D02*
X113470198Y-99509520D01*
X103632000Y-117112000D02*
X103632000Y-117556311D01*
X106484511Y-94679489D02*
X106484511Y-97517268D01*
X157367054Y-124318946D02*
X157367054Y-125831783D01*
X90836458Y-150780458D02*
X93980000Y-153924000D01*
X157367054Y-125831783D02*
X156708332Y-126490505D01*
X106484511Y-97517268D02*
X108476763Y-99509520D01*
X125476000Y-145796000D02*
X138938000Y-132334000D01*
X151802750Y-127147906D02*
X151335639Y-126680795D01*
X160782000Y-131318000D02*
X162052000Y-130048000D01*
X138938000Y-132334000D02*
X152908000Y-132334000D01*
X90836458Y-130351853D02*
X90836458Y-150780458D01*
X158088986Y-123597014D02*
X157367054Y-124318946D01*
X153924000Y-131318000D02*
X160782000Y-131318000D01*
X105410000Y-94204000D02*
X106009022Y-94204000D01*
X155776754Y-126490505D02*
X155119353Y-127147906D01*
X162052000Y-126492000D02*
X159157014Y-123597014D01*
X113470198Y-99509520D02*
X119966560Y-93013158D01*
X102268900Y-65659000D02*
X114912500Y-65659000D01*
X119966560Y-93013158D02*
X119966560Y-73216660D01*
X152908000Y-132334000D02*
X153924000Y-131318000D01*
X105664000Y-153924000D02*
X113792000Y-145796000D01*
X162052000Y-130048000D02*
X162052000Y-126492000D01*
X113792000Y-145796000D02*
X125476000Y-145796000D01*
X159157014Y-123597014D02*
X158088986Y-123597014D01*
X93980000Y-153924000D02*
X105664000Y-153924000D01*
X102734000Y-116214000D02*
X103632000Y-117112000D01*
X155119353Y-127147906D02*
X151802750Y-127147906D01*
X114912500Y-65659000D02*
X116182500Y-66929000D01*
X119966560Y-73216660D02*
X117488900Y-70739000D01*
X106009022Y-94204000D02*
X106484511Y-94679489D01*
%TO.N,COL0*%
X102362000Y-138191048D02*
X102973784Y-138802832D01*
X102675007Y-61119933D02*
X99855989Y-63938951D01*
X127523787Y-61119933D02*
X102675007Y-61119933D01*
X128666787Y-92782933D02*
X131206787Y-90242933D01*
X114912500Y-83439000D02*
X116182500Y-84709000D01*
X102973784Y-142036469D02*
X102973784Y-138802832D01*
X100654511Y-83439000D02*
X102268900Y-83439000D01*
X129147574Y-107242933D02*
X102362000Y-134028507D01*
X99855989Y-82640478D02*
X100654511Y-83439000D01*
X131206787Y-76722933D02*
X131206787Y-73242933D01*
X127396787Y-86432933D02*
X131206787Y-90242933D01*
X127396787Y-69432933D02*
X131206787Y-73242933D01*
X131206787Y-107242933D02*
X129147574Y-107242933D01*
X99855989Y-63938951D02*
X99855989Y-82640478D01*
X127396787Y-81802933D02*
X127396787Y-86432933D01*
X102362000Y-134028507D02*
X102362000Y-138191048D01*
X127396787Y-64802933D02*
X127396787Y-69432933D01*
X128666787Y-79262933D02*
X131206787Y-76722933D01*
X98245467Y-146764786D02*
X102973784Y-142036469D01*
X128666787Y-62262933D02*
X127523787Y-61119933D01*
X102268900Y-83439000D02*
X114912500Y-83439000D01*
X128666787Y-96262933D02*
X128666787Y-92782933D01*
%TO.N,COL1*%
X145396787Y-80027242D02*
X145396787Y-84657242D01*
X120498888Y-126044973D02*
X141076619Y-105467242D01*
X141076619Y-105467242D02*
X149206787Y-105467242D01*
X145396787Y-63027242D02*
X145396787Y-67657242D01*
X98806000Y-64353222D02*
X98806000Y-84130489D01*
X149206787Y-74947242D02*
X149206787Y-71467242D01*
X149206787Y-91947242D02*
X149206787Y-88467242D01*
X145396787Y-67657242D02*
X149206787Y-71467242D01*
X145396787Y-84657242D02*
X149206787Y-88467242D01*
X146666787Y-94487242D02*
X149206787Y-91947242D01*
X120498888Y-130537493D02*
X120498888Y-129556624D01*
X114459826Y-136576555D02*
X120498888Y-130537493D01*
X120498888Y-129556624D02*
X120498888Y-126044973D01*
X100654511Y-85979000D02*
X102268900Y-85979000D01*
X145396787Y-97027242D02*
X145396787Y-101874816D01*
X102268900Y-85979000D02*
X114912500Y-85979000D01*
X114912500Y-85979000D02*
X116182500Y-87249000D01*
X146666787Y-77487242D02*
X149206787Y-74947242D01*
X146666787Y-60487242D02*
X102671980Y-60487242D01*
X145396787Y-101874816D02*
X148989213Y-105467242D01*
X102671980Y-60487242D02*
X98806000Y-64353222D01*
X98806000Y-84130489D02*
X100654511Y-85979000D01*
X148989213Y-105467242D02*
X149206787Y-105467242D01*
%TO.N,COL2*%
X168541286Y-67723412D02*
X170458193Y-69640319D01*
X102264074Y-57337725D02*
X98356480Y-61245319D01*
X164434991Y-100451031D02*
X167494898Y-103510938D01*
X165916637Y-77835682D02*
X165916637Y-83515722D01*
X102268900Y-88519000D02*
X114912500Y-88519000D01*
X98356480Y-86220969D02*
X100654511Y-88519000D01*
X165921534Y-89630639D02*
X168976544Y-86575629D01*
X165916637Y-83515722D02*
X168976544Y-86575629D01*
X139653749Y-115666475D02*
X148386224Y-106934000D01*
X167403180Y-72695332D02*
X170458193Y-69640319D01*
X100654511Y-88519000D02*
X102268900Y-88519000D01*
X168884829Y-58480725D02*
X167741829Y-57337725D01*
X139653749Y-123641901D02*
X139653749Y-115666475D01*
X114912500Y-88519000D02*
X116182500Y-89789000D01*
X164434991Y-94770991D02*
X164434991Y-100451031D01*
X167398286Y-60900372D02*
X168541286Y-62043372D01*
X98356480Y-61245319D02*
X98356480Y-86220969D01*
X164071836Y-106934000D02*
X167494898Y-103510938D01*
X165921534Y-92351344D02*
X165921534Y-89630639D01*
X148386224Y-106934000D02*
X164071836Y-106934000D01*
X168541286Y-62043372D02*
X168541286Y-67723412D01*
X133789139Y-129506511D02*
X139653749Y-123641901D01*
X167741829Y-57337725D02*
X102264074Y-57337725D01*
X132487436Y-129506511D02*
X133789139Y-129506511D01*
X167403180Y-75416035D02*
X167403180Y-72695332D01*
%TO.N,COL3*%
X191096263Y-81104002D02*
X187549490Y-84650775D01*
X191096263Y-79163299D02*
X188809736Y-76876772D01*
X179480670Y-56888205D02*
X99937349Y-56888205D01*
X184597470Y-101392506D02*
X184597470Y-99451806D01*
X188809736Y-76876772D02*
X188809736Y-70189922D01*
X146411863Y-127353069D02*
X146411863Y-124860137D01*
X102268900Y-91059000D02*
X114912500Y-91059000D01*
X99937349Y-56888205D02*
X97790000Y-59035554D01*
X184300987Y-113538000D02*
X185192225Y-112646762D01*
X97790000Y-88173060D02*
X100675940Y-91059000D01*
X191096263Y-79163299D02*
X191096263Y-81104002D01*
X184597470Y-99451806D02*
X188144245Y-95905031D01*
X185857718Y-93618504D02*
X185857718Y-86931654D01*
X188144245Y-95905031D02*
X185857718Y-93618504D01*
X114912500Y-91059000D02*
X116182500Y-92329000D01*
X97790000Y-59035554D02*
X97790000Y-88173060D01*
X100675940Y-91059000D02*
X102268900Y-91059000D01*
X182905698Y-103673385D02*
X182905698Y-110360235D01*
X146411863Y-124860137D02*
X157734000Y-113538000D01*
X182905698Y-110360235D02*
X185192225Y-112646762D01*
X190501508Y-67909043D02*
X179480670Y-56888205D01*
X157734000Y-113538000D02*
X184300987Y-113538000D01*
%TO.N,RESET*%
X102268900Y-68199000D02*
X114912500Y-68199000D01*
X114912500Y-68199000D02*
X116182500Y-69469000D01*
%TO.N,BAT+*%
X114912500Y-63119000D02*
X116182500Y-64389000D01*
X102268900Y-63119000D02*
X114912500Y-63119000D01*
%TO.N,Enc1*%
X144755051Y-118818322D02*
X143202322Y-118818322D01*
X145970473Y-117602900D02*
X144755051Y-118818322D01*
X143202322Y-118818322D02*
X141732000Y-117348000D01*
X141732000Y-116586000D02*
X141986000Y-116586000D01*
X145970473Y-116471530D02*
X145970473Y-117602900D01*
X141732000Y-117348000D02*
X141732000Y-116586000D01*
%TO.N,Enc2*%
X114912500Y-80899000D02*
X116182500Y-82169000D01*
X140970000Y-117856000D02*
X140970000Y-115570000D01*
X150877377Y-115156729D02*
X146766264Y-119267842D01*
X146766264Y-119267842D02*
X142381842Y-119267842D01*
X102268900Y-80899000D02*
X114912500Y-80899000D01*
X142381842Y-119267842D02*
X140970000Y-117856000D01*
X140970000Y-115570000D02*
X141732000Y-114808000D01*
%TO.N,Net-(J2-Pad1)*%
X105410000Y-95504000D02*
X105410000Y-97536000D01*
%TO.N,Net-(J2-Pad2)*%
X107950000Y-95504000D02*
X107950000Y-97536000D01*
%TO.N,Net-(J2-Pad3)*%
X110490000Y-95504000D02*
X110490000Y-97536000D01*
%TO.N,Net-(J2-Pad4)*%
X113030000Y-95504000D02*
X113030000Y-97536000D01*
%TO.N,SDA*%
X116516177Y-94204000D02*
X119067520Y-91652657D01*
X119067520Y-91652657D02*
X119067520Y-74857620D01*
X119067520Y-74857620D02*
X117488900Y-73279000D01*
X113030000Y-94204000D02*
X116516177Y-94204000D01*
%TO.N,SCL*%
X111314511Y-93379489D02*
X115696429Y-93379489D01*
X110490000Y-94204000D02*
X111314511Y-93379489D01*
X116668949Y-93415511D02*
X118618000Y-91466460D01*
X118618000Y-76948100D02*
X117488900Y-75819000D01*
X115696429Y-93379489D02*
X115732451Y-93415511D01*
X115732451Y-93415511D02*
X116668949Y-93415511D01*
X118618000Y-91466460D02*
X118618000Y-76948100D01*
%TD*%
M02*
