%TF.GenerationSoftware,KiCad,Pcbnew,(6.0.4)*%
%TF.CreationDate,2022-06-17T15:21:50+10:00*%
%TF.ProjectId,luna,6c756e61-2e6b-4696-9361-645f70636258,rev?*%
%TF.SameCoordinates,Original*%
%TF.FileFunction,Profile,NP*%
%FSLAX46Y46*%
G04 Gerber Fmt 4.6, Leading zero omitted, Abs format (unit mm)*
G04 Created by KiCad (PCBNEW (6.0.4)) date 2022-06-17 15:21:50*
%MOMM*%
%LPD*%
G01*
G04 APERTURE LIST*
%TA.AperFunction,Profile*%
%ADD10C,0.100000*%
%TD*%
%TA.AperFunction,Profile*%
%ADD11C,0.050000*%
%TD*%
G04 APERTURE END LIST*
D10*
X209042000Y-62230000D02*
X205613000Y-96012000D01*
X91948000Y-54610000D02*
X91694000Y-123698000D01*
X173736000Y-133096000D02*
X225394787Y-151076933D01*
X209042000Y-62230000D02*
X182118000Y-50292000D01*
X91694000Y-123698000D02*
X77470000Y-136906000D01*
X91536787Y-162760933D02*
X173736000Y-133096000D01*
X77470000Y-136906000D02*
X91536787Y-162760933D01*
X225394787Y-151076933D02*
X238506000Y-107950000D01*
X238506000Y-107950000D02*
X205613000Y-96012000D01*
X182118000Y-50292000D02*
X91948000Y-54610000D01*
D11*
%TO.C,S16*%
X142272617Y-113450672D02*
X142738491Y-115189339D01*
X155621340Y-109563310D02*
X142484749Y-113083249D01*
X143105914Y-115401471D02*
X156242506Y-111881532D01*
X156454638Y-111514108D02*
X155988763Y-109775442D01*
X142484749Y-113083250D02*
G75*
G03*
X142272617Y-113450672I77645J-289777D01*
G01*
X142738491Y-115189339D02*
G75*
G03*
X143105914Y-115401471I289778J77646D01*
G01*
X155988764Y-109775442D02*
G75*
G03*
X155621340Y-109563310I-289778J-77646D01*
G01*
X156242506Y-111881532D02*
G75*
G03*
X156454638Y-111514108I-77646J289778D01*
G01*
X147190178Y-131803263D02*
X146724304Y-130064597D01*
X146936436Y-129697173D02*
X160073027Y-126177234D01*
X160440451Y-126389366D02*
X160906325Y-128128033D01*
X160694193Y-128495456D02*
X147557602Y-132015395D01*
X160694193Y-128495456D02*
G75*
G03*
X160906325Y-128128033I-77646J289778D01*
G01*
X147190178Y-131803263D02*
G75*
G03*
X147557602Y-132015395I289778J77646D01*
G01*
X146936436Y-129697173D02*
G75*
G03*
X146724304Y-130064597I77646J-289778D01*
G01*
X160440451Y-126389366D02*
G75*
G03*
X160073027Y-126177234I-289778J-77646D01*
G01*
%TD*%
M02*
