%TF.GenerationSoftware,KiCad,Pcbnew,(6.0.4)*%
%TF.CreationDate,2022-06-17T15:21:50+10:00*%
%TF.ProjectId,luna,6c756e61-2e6b-4696-9361-645f70636258,rev?*%
%TF.SameCoordinates,Original*%
%TF.FileFunction,Soldermask,Top*%
%TF.FilePolarity,Negative*%
%FSLAX46Y46*%
G04 Gerber Fmt 4.6, Leading zero omitted, Abs format (unit mm)*
G04 Created by KiCad (PCBNEW (6.0.4)) date 2022-06-17 15:21:50*
%MOMM*%
%LPD*%
G01*
G04 APERTURE LIST*
G04 Aperture macros list*
%AMRoundRect*
0 Rectangle with rounded corners*
0 $1 Rounding radius*
0 $2 $3 $4 $5 $6 $7 $8 $9 X,Y pos of 4 corners*
0 Add a 4 corners polygon primitive as box body*
4,1,4,$2,$3,$4,$5,$6,$7,$8,$9,$2,$3,0*
0 Add four circle primitives for the rounded corners*
1,1,$1+$1,$2,$3*
1,1,$1+$1,$4,$5*
1,1,$1+$1,$6,$7*
1,1,$1+$1,$8,$9*
0 Add four rect primitives between the rounded corners*
20,1,$1+$1,$2,$3,$4,$5,0*
20,1,$1+$1,$4,$5,$6,$7,0*
20,1,$1+$1,$6,$7,$8,$9,0*
20,1,$1+$1,$8,$9,$2,$3,0*%
%AMHorizOval*
0 Thick line with rounded ends*
0 $1 width*
0 $2 $3 position (X,Y) of the first rounded end (center of the circle)*
0 $4 $5 position (X,Y) of the second rounded end (center of the circle)*
0 Add line between two ends*
20,1,$1,$2,$3,$4,$5,0*
0 Add two circle primitives to create the rounded ends*
1,1,$1,$2,$3*
1,1,$1,$4,$5*%
%AMRotRect*
0 Rectangle, with rotation*
0 The origin of the aperture is its center*
0 $1 length*
0 $2 width*
0 $3 Rotation angle, in degrees counterclockwise*
0 Add horizontal line*
21,1,$1,$2,0,0,$3*%
G04 Aperture macros list end*
%ADD10RotRect,1.778000X1.300000X115.000000*%
%ADD11RotRect,1.400000X1.300000X295.000000*%
%ADD12HorizOval,1.300000X-0.101006X0.216608X0.101006X-0.216608X0*%
%ADD13RotRect,1.400000X1.300000X250.000000*%
%ADD14RotRect,1.778000X1.300000X70.000000*%
%ADD15HorizOval,1.300000X0.081743X0.224587X-0.081743X-0.224587X0*%
%ADD16RotRect,1.400000X1.300000X260.000000*%
%ADD17RotRect,1.778000X1.300000X80.000000*%
%ADD18HorizOval,1.300000X0.041502X0.235369X-0.041502X-0.235369X0*%
%ADD19C,0.990600*%
%ADD20C,1.701800*%
%ADD21C,1.781800*%
%ADD22C,3.987800*%
%ADD23C,2.286000*%
%ADD24C,2.032000*%
%ADD25RotRect,1.400000X1.300000X265.000000*%
%ADD26RotRect,1.778000X1.300000X85.000000*%
%ADD27HorizOval,1.300000X0.020830X0.238091X-0.020830X-0.238091X0*%
%ADD28R,1.300000X1.778000*%
%ADD29R,1.300000X1.400000*%
%ADD30O,1.300000X1.778000*%
%ADD31RotRect,1.400000X1.300000X305.000000*%
%ADD32RotRect,1.778000X1.300000X125.000000*%
%ADD33HorizOval,1.300000X-0.137085X0.195777X0.137085X-0.195777X0*%
%ADD34RotRect,1.778000X1.300000X105.000000*%
%ADD35RotRect,1.400000X1.300000X285.000000*%
%ADD36HorizOval,1.300000X-0.061858X0.230856X0.061858X-0.230856X0*%
%ADD37C,1.200000*%
%ADD38O,2.500000X1.700000*%
%ADD39C,1.524000*%
%ADD40R,1.500000X1.000000*%
%ADD41C,4.400000*%
%ADD42C,1.500000*%
%ADD43C,1.600000*%
%ADD44RoundRect,0.250000X0.625000X-0.350000X0.625000X0.350000X-0.625000X0.350000X-0.625000X-0.350000X0*%
%ADD45O,1.750000X1.200000*%
G04 APERTURE END LIST*
D10*
%TO.C,D8*%
X124542789Y-131782552D03*
D11*
X124025081Y-130672325D03*
D12*
X122007079Y-126344706D03*
D11*
X122524787Y-127454933D03*
%TD*%
D13*
%TO.C,D19*%
X229768615Y-124694841D03*
D14*
X229349641Y-125845965D03*
D13*
X230982787Y-121358933D03*
D15*
X231401761Y-120207809D03*
%TD*%
D16*
%TO.C,D14*%
X197387616Y-93803390D03*
D17*
X197174897Y-95009779D03*
D16*
X198004068Y-90307322D03*
D18*
X198216787Y-89100933D03*
%TD*%
D19*
%TO.C,S4*%
X97694417Y-148871928D03*
D20*
X101054555Y-146348225D03*
X95227019Y-138025641D03*
D19*
X91706279Y-140319980D03*
D21*
X94986117Y-137681597D03*
X101295457Y-146692269D03*
D22*
X98140787Y-142186933D03*
D23*
X95436379Y-147181347D03*
X98245467Y-146764786D03*
D24*
X102973784Y-138802832D03*
X98385683Y-135911582D03*
D23*
X92522610Y-143020055D03*
X93874815Y-140522848D03*
D24*
X104121447Y-144103103D03*
%TD*%
D20*
%TO.C,S3*%
X136286787Y-101342933D03*
D21*
X125706787Y-101342933D03*
D20*
X126126787Y-101342933D03*
D22*
X131206787Y-101342933D03*
D21*
X136706787Y-101342933D03*
D19*
X125986787Y-97142933D03*
X136426787Y-97142933D03*
D23*
X127396787Y-98802933D03*
D24*
X131206787Y-107242933D03*
D23*
X128666787Y-96262933D03*
X135016787Y-98802933D03*
D24*
X126206787Y-105142933D03*
X136206787Y-105142933D03*
D23*
X133746787Y-96262933D03*
%TD*%
D25*
%TO.C,D11*%
X176472086Y-99759179D03*
D26*
X176365320Y-100979517D03*
D25*
X176781488Y-96222687D03*
D27*
X176888254Y-95002349D03*
%TD*%
D28*
%TO.C,D6*%
X157830787Y-85747933D03*
D29*
X157830787Y-84522933D03*
D30*
X157830787Y-79747933D03*
D29*
X157830787Y-80972933D03*
%TD*%
D14*
%TO.C,D17*%
X212585641Y-118987965D03*
D13*
X213004615Y-117836841D03*
D15*
X214637761Y-113349809D03*
D13*
X214218787Y-114500933D03*
%TD*%
D31*
%TO.C,D4*%
X106526983Y-139252923D03*
D32*
X107229614Y-140256384D03*
D31*
X104490787Y-136344933D03*
D33*
X103788156Y-135341472D03*
%TD*%
D19*
%TO.C,S1*%
X136426787Y-63142933D03*
D20*
X126126787Y-67342933D03*
D22*
X131206787Y-67342933D03*
D19*
X125986787Y-63142933D03*
D21*
X125706787Y-67342933D03*
D20*
X136286787Y-67342933D03*
D21*
X136706787Y-67342933D03*
D23*
X128666787Y-62262933D03*
D24*
X131206787Y-73242933D03*
D23*
X127396787Y-64802933D03*
X133746787Y-62262933D03*
X135016787Y-64802933D03*
D24*
X126206787Y-71142933D03*
X136206787Y-71142933D03*
%TD*%
D13*
%TO.C,D18*%
X207007701Y-133694887D03*
D14*
X206588727Y-134846011D03*
D15*
X208640847Y-129207855D03*
D13*
X208221873Y-130358979D03*
%TD*%
D28*
%TO.C,D5*%
X157830787Y-68938933D03*
D29*
X157830787Y-67713933D03*
D30*
X157830787Y-62938933D03*
D29*
X157830787Y-64163933D03*
%TD*%
D21*
%TO.C,S6*%
X154706787Y-82567242D03*
D20*
X144126787Y-82567242D03*
X154286787Y-82567242D03*
D19*
X143986787Y-78367242D03*
X154426787Y-78367242D03*
D21*
X143706787Y-82567242D03*
D22*
X149206787Y-82567242D03*
D23*
X146666787Y-77487242D03*
X145396787Y-80027242D03*
D24*
X149206787Y-88467242D03*
X154206787Y-86367242D03*
D23*
X151746787Y-77487242D03*
D24*
X144206787Y-86367242D03*
D23*
X153016787Y-80027242D03*
%TD*%
D19*
%TO.C,S17*%
X211827680Y-110614636D03*
X202017289Y-107043946D03*
D20*
X200712361Y-111038538D03*
X210259639Y-114513462D03*
D22*
X205486000Y-112776000D03*
D21*
X200317691Y-110894889D03*
X210654309Y-114657111D03*
D24*
X203468081Y-118320186D03*
D23*
X204836643Y-107133630D03*
X202774502Y-109086084D03*
D24*
X208884787Y-118056933D03*
D23*
X209934960Y-111692277D03*
D24*
X199487860Y-114636731D03*
D23*
X209610283Y-108871093D03*
%TD*%
D26*
%TO.C,D10*%
X177988619Y-84459763D03*
D25*
X178095385Y-83239425D03*
D27*
X178511553Y-78482595D03*
D25*
X178404787Y-79702933D03*
%TD*%
D20*
%TO.C,S12*%
X135269588Y-130075836D03*
D21*
X132531282Y-119856341D03*
D19*
X128546863Y-121213840D03*
D22*
X133954787Y-125168933D03*
D21*
X135378292Y-130481525D03*
D20*
X132639986Y-120262030D03*
D19*
X131248934Y-131298106D03*
D24*
X139653749Y-123641901D03*
D23*
X132487436Y-129506511D03*
X129705284Y-128937185D03*
D24*
X138919400Y-129015050D03*
D23*
X130515235Y-122146156D03*
D24*
X136331210Y-119355791D03*
D23*
X128390483Y-124030282D03*
%TD*%
D19*
%TO.C,S10*%
X164656681Y-76059109D03*
D21*
X164011692Y-80218723D03*
D20*
X174551432Y-81140831D03*
D21*
X174969834Y-81177437D03*
D20*
X164430094Y-80255329D03*
D22*
X169490763Y-80698080D03*
D19*
X175056953Y-76969015D03*
D24*
X168976544Y-86575629D03*
D23*
X167403180Y-75416035D03*
X165916637Y-77835682D03*
X173507640Y-78499809D03*
D24*
X164178598Y-84047841D03*
D23*
X172463849Y-75858787D03*
D24*
X174140545Y-84919399D03*
%TD*%
D26*
%TO.C,D9*%
X179258619Y-67949763D03*
D25*
X179365385Y-66729425D03*
D27*
X179781553Y-61972595D03*
D25*
X179674787Y-63192933D03*
%TD*%
D34*
%TO.C,D16*%
X160131244Y-121462710D03*
D35*
X159814191Y-120279451D03*
D36*
X158578330Y-115667156D03*
D35*
X158895383Y-116850415D03*
%TD*%
D22*
%TO.C,S7*%
X149206787Y-99567242D03*
D21*
X154706787Y-99567242D03*
D19*
X154426787Y-95367242D03*
X143986787Y-95367242D03*
D20*
X144126787Y-99567242D03*
X154286787Y-99567242D03*
D21*
X143706787Y-99567242D03*
D23*
X145396787Y-97027242D03*
D24*
X149206787Y-105467242D03*
D23*
X146666787Y-94487242D03*
X151746787Y-94487242D03*
X153016787Y-97027242D03*
D24*
X154206787Y-103367242D03*
X144206787Y-103367242D03*
%TD*%
D37*
%TO.C,J1*%
X92434000Y-114114000D03*
X99434000Y-114114000D03*
X99434000Y-115864000D03*
X92434000Y-115864000D03*
D38*
X101234000Y-117964000D03*
X101234000Y-112014000D03*
X97234000Y-117964000D03*
X97234000Y-112014000D03*
X94234000Y-112014000D03*
X94234000Y-117964000D03*
X102734000Y-116214000D03*
X102734000Y-113764000D03*
%TD*%
D35*
%TO.C,D12*%
X143001595Y-125295969D03*
D34*
X143318648Y-126479228D03*
D35*
X142082787Y-121866933D03*
D36*
X141765734Y-120683674D03*
%TD*%
D22*
%TO.C,S18*%
X199671657Y-128750776D03*
D19*
X196202946Y-123018722D03*
D21*
X194503348Y-126869665D03*
X204839966Y-130631887D03*
D20*
X194898018Y-127013314D03*
D19*
X206013337Y-126589412D03*
D20*
X204445296Y-130488238D03*
D23*
X196960159Y-125060860D03*
D24*
X197653738Y-134294962D03*
D23*
X199022300Y-123108406D03*
X204120617Y-127667053D03*
D24*
X193673517Y-130611507D03*
D23*
X203795939Y-124845869D03*
D24*
X203070444Y-134031709D03*
%TD*%
D39*
%TO.C,SW2*%
X93904000Y-104942000D03*
X97104000Y-107442000D03*
X93904000Y-109942000D03*
%TD*%
D20*
%TO.C,S5*%
X154286787Y-65567242D03*
X144126787Y-65567242D03*
D21*
X143706787Y-65567242D03*
X154706787Y-65567242D03*
D19*
X154426787Y-61367242D03*
D22*
X149206787Y-65567242D03*
D19*
X143986787Y-61367242D03*
D23*
X145396787Y-63027242D03*
D24*
X149206787Y-71467242D03*
D23*
X146666787Y-60487242D03*
X153016787Y-63027242D03*
X151746787Y-60487242D03*
D24*
X154206787Y-69367242D03*
X144206787Y-69367242D03*
%TD*%
D20*
%TO.C,S2*%
X136286787Y-84342933D03*
D21*
X136706787Y-84342933D03*
X125706787Y-84342933D03*
D19*
X136426787Y-80142933D03*
D20*
X126126787Y-84342933D03*
D22*
X131206787Y-84342933D03*
D19*
X125986787Y-80142933D03*
D24*
X131206787Y-90242933D03*
D23*
X128666787Y-79262933D03*
X127396787Y-81802933D03*
X133746787Y-79262933D03*
D24*
X126206787Y-88142933D03*
X136206787Y-88142933D03*
D23*
X135016787Y-81802933D03*
%TD*%
D40*
%TO.C,JP5*%
X113030000Y-94204000D03*
X113030000Y-95504000D03*
%TD*%
%TO.C,JP3*%
X110490000Y-95504000D03*
X110490000Y-94204000D03*
%TD*%
D19*
%TO.C,S19*%
X228780765Y-116664898D03*
D21*
X217270776Y-116945151D03*
D22*
X222439085Y-118826262D03*
D20*
X227212724Y-120563724D03*
D19*
X218970374Y-113094208D03*
D21*
X227607394Y-120707373D03*
D20*
X217665446Y-117088800D03*
D23*
X221789728Y-113183892D03*
X219727587Y-115136346D03*
D24*
X220421166Y-124370448D03*
X216440945Y-120686993D03*
X225837872Y-124107195D03*
D23*
X226563367Y-114921355D03*
X226888045Y-117742539D03*
%TD*%
D29*
%TO.C,D1*%
X139796787Y-70044933D03*
D28*
X139796787Y-71269933D03*
D29*
X139796787Y-66494933D03*
D30*
X139796787Y-65269933D03*
%TD*%
D41*
%TO.C,REF\u002A\u002A*%
X159512000Y-110998000D03*
X178562000Y-91948000D03*
X140462000Y-91948000D03*
X159512000Y-72898000D03*
%TD*%
D21*
%TO.C,S9*%
X165493341Y-63283413D03*
X176451483Y-64242127D03*
D19*
X176538602Y-60033705D03*
X166138330Y-59123799D03*
D22*
X170972412Y-63762770D03*
D20*
X176033081Y-64205521D03*
X165911743Y-63320019D03*
D24*
X170458193Y-69640319D03*
D23*
X168884829Y-58480725D03*
X167398286Y-60900372D03*
D24*
X175622194Y-67984089D03*
D23*
X174989289Y-61564499D03*
X173945498Y-58923477D03*
D24*
X165660247Y-67112531D03*
%TD*%
D29*
%TO.C,D2*%
X139796787Y-87573933D03*
D28*
X139796787Y-88798933D03*
D29*
X139796787Y-84023933D03*
D30*
X139796787Y-82798933D03*
%TD*%
D42*
%TO.C,S16*%
X158647698Y-124721535D03*
D43*
X148882188Y-127338195D03*
X151335639Y-126680795D03*
X153789091Y-126023395D03*
X156242543Y-125365994D03*
X146890678Y-129140032D03*
X146411863Y-127353069D03*
%TD*%
D22*
%TO.C,S8*%
X115151672Y-132050072D03*
D21*
X117476072Y-137034765D03*
D20*
X113004771Y-127446028D03*
D21*
X112827272Y-127065379D03*
D20*
X117298573Y-136654116D03*
D19*
X113551247Y-138555995D03*
X109139112Y-129094142D03*
D23*
X111621079Y-136498995D03*
X114459826Y-136576555D03*
D24*
X120498888Y-129556624D03*
D23*
X109474178Y-131894951D03*
D24*
X116482550Y-125912584D03*
X120708733Y-134975662D03*
D23*
X111239475Y-129670490D03*
%TD*%
D29*
%TO.C,D3*%
X139796787Y-100527933D03*
D28*
X139796787Y-101752933D03*
D29*
X139796787Y-96977933D03*
D30*
X139796787Y-95752933D03*
%TD*%
D39*
%TO.C,U11*%
X117488900Y-63119000D03*
X100942500Y-64389000D03*
X100942500Y-66929000D03*
X117488900Y-65659000D03*
X100942500Y-69469000D03*
X117488900Y-68199000D03*
X100942500Y-72009000D03*
X117488900Y-70739000D03*
X100942500Y-74549000D03*
X117488900Y-73279000D03*
X117488900Y-75819000D03*
X100942500Y-77089000D03*
X100942500Y-79629000D03*
X117488900Y-78359000D03*
X100942500Y-82169000D03*
X117488900Y-80899000D03*
X117488900Y-83439000D03*
X100942500Y-84709000D03*
X117488900Y-85979000D03*
X100942500Y-87249000D03*
X100942500Y-89789000D03*
X117488900Y-88519000D03*
X117488900Y-91059000D03*
X100942500Y-92329000D03*
X102268900Y-91059000D03*
X116182500Y-92329000D03*
X102268900Y-88519000D03*
X116182500Y-89789000D03*
X102268900Y-85979000D03*
X116182500Y-87249000D03*
X102268900Y-83439000D03*
X116182500Y-84709000D03*
X116182500Y-82169000D03*
X102268900Y-80899000D03*
X102268900Y-78359000D03*
X116182500Y-79629000D03*
X116182500Y-77089000D03*
X102268900Y-75819000D03*
X116182500Y-74549000D03*
X102268900Y-73279000D03*
X116182500Y-72009000D03*
X102268900Y-70739000D03*
X116182500Y-69469000D03*
X102268900Y-68199000D03*
X116182500Y-66929000D03*
X102268900Y-65659000D03*
X116182500Y-64389000D03*
X102268900Y-63119000D03*
%TD*%
D29*
%TO.C,D7*%
X157830787Y-100524933D03*
D28*
X157830787Y-101749933D03*
D30*
X157830787Y-95749933D03*
D29*
X157830787Y-96974933D03*
%TD*%
D44*
%TO.C,J3*%
X104992000Y-111744000D03*
D45*
X104992000Y-109744000D03*
%TD*%
D19*
%TO.C,S15*%
X181805375Y-101793760D03*
D20*
X181213926Y-105954263D03*
D22*
X186216749Y-106836396D03*
D20*
X191219572Y-107718529D03*
D21*
X191633192Y-107791461D03*
D19*
X192086768Y-103606647D03*
D21*
X180800306Y-105881331D03*
D23*
X182905698Y-103673385D03*
D24*
X185192225Y-112646762D03*
D23*
X184597470Y-101392506D03*
D24*
X180632847Y-109710425D03*
D23*
X190409933Y-104996584D03*
X189600293Y-102274639D03*
D24*
X190480925Y-111446906D03*
%TD*%
D21*
%TO.C,S11*%
X173488188Y-98112746D03*
D19*
X173575307Y-93904324D03*
D20*
X162948448Y-97190638D03*
D22*
X168009117Y-97633389D03*
D21*
X162530046Y-97154032D03*
D19*
X163175035Y-92994418D03*
D20*
X173069786Y-98076140D03*
D24*
X167494898Y-103510938D03*
D23*
X164434991Y-94770991D03*
X165921534Y-92351344D03*
D24*
X172658899Y-101854708D03*
D23*
X170982203Y-92794096D03*
D24*
X162696952Y-100983150D03*
D23*
X172025994Y-95435118D03*
%TD*%
D20*
%TO.C,S14*%
X194171592Y-90976798D03*
D19*
X184757395Y-85052029D03*
X195038788Y-86864916D03*
D20*
X184165946Y-89212532D03*
D21*
X194585212Y-91049730D03*
X183752326Y-89139600D03*
D22*
X189168769Y-90094665D03*
D23*
X185857718Y-86931654D03*
X187549490Y-84650775D03*
D24*
X188144245Y-95905031D03*
X183584867Y-92968694D03*
X193432945Y-94705175D03*
D23*
X193361953Y-88254853D03*
X192552313Y-85532908D03*
%TD*%
D19*
%TO.C,S13*%
X197990806Y-70123184D03*
D22*
X192120787Y-73352933D03*
D21*
X197537230Y-74307998D03*
X186704344Y-72397868D03*
D20*
X187117964Y-72470800D03*
D19*
X187709413Y-68310297D03*
D20*
X197123610Y-74235066D03*
D24*
X191096263Y-79163299D03*
D23*
X190501508Y-67909043D03*
X188809736Y-70189922D03*
D24*
X186536885Y-76226962D03*
D23*
X195504331Y-68791176D03*
X196313971Y-71513121D03*
D24*
X196384963Y-77963443D03*
%TD*%
D16*
%TO.C,D13*%
X200461429Y-77103001D03*
D17*
X200248710Y-78309390D03*
D18*
X201290600Y-72400544D03*
D16*
X201077881Y-73606933D03*
%TD*%
D40*
%TO.C,JP7*%
X107950000Y-94204000D03*
X107950000Y-95504000D03*
%TD*%
D17*
%TO.C,D15*%
X194206100Y-112091390D03*
D16*
X194418819Y-110885001D03*
X195035271Y-107388933D03*
D18*
X195247990Y-106182544D03*
%TD*%
D40*
%TO.C,JP1*%
X105410000Y-95504000D03*
X105410000Y-94204000D03*
%TD*%
D42*
%TO.C,S16*%
X155735984Y-113854869D03*
D43*
X145970473Y-116471530D03*
X148423925Y-115814129D03*
X150877377Y-115156729D03*
X153330828Y-114499329D03*
X143344857Y-115906848D03*
X143823673Y-117693811D03*
%TD*%
M02*
